<svg  class="rosemilk_logo" xmlns="http://www.w3.org/2000/svg" viewBox="0 0 666.161 254.804">
  <path fill="#ffffff" stroke="#ffffff" d="M94.33 198.564a5.378 5.378 0 011.722.6 4.261 4.261 0 011.889 5.056 8.778 8.778 0 01-.861 2.182 4.173 4.173 0 01-4.411 2.251l-7.189-1c-21.69-3.44-29.68-4.528-34.847 4.688L41.126 229.3l28.937 16.22c2.581 1.447 2.889 3.921 1.494 6.409-1.447 2.58-3.771 3.7-6.443 2.2L6.688 221.374c-7.1-3.979-8.352-8.437-4.683-14.98l12.09-21.565c7.492-13.362 18.722-16.756 30.057-10.4 10.6 5.942 12.768 15.032 9.806 24.636 4.759-4.6 12.587-4.087 33.644-1.244zm-48.877 5.3c4.392-7.833 2.4-15.733-4.972-19.866-7.833-4.392-14.448-2.529-19.047 5.673l-10.491 18.707c-1.085 1.936-.691 3.61 1.521 4.85l21.1 11.831zM205.724 62.048c16.5-3.383 26.972-1.833 33.086 12.212 5.44 12.5-.059 26.067-17.4 33.616-22.086 9.615-31.615.167-37.356-6.667a7.232 7.232 0 01-.741-1.175c-.929-2.131.086-4.3 1.909-5.671a10.5 10.5 0 011.562-.91 4.534 4.534 0 015.527 1.05c4.57 5.731 10.93 11.6 25.072 5.447 11.043-4.807 15.6-13.129 11.974-21.46-3.458-7.943-9.335-9.532-21.778-6.881l-8.466 1.727c-15.838 3.323-24.828.669-30.353-12.02-4.428-10.171-1.174-23.341 17.037-31.269 17.436-7.591 27.49-.907 32.657 5.14a4.232 4.232 0 01.924 1.327 4.506 4.506 0 01-1.9 5.434 9.253 9.253 0 01-1.563.911 4.694 4.694 0 01-5.485-.953c-3.953-4.847-10.384-8.5-21.135-3.819-11.237 4.892-13.924 12.745-11.142 19.138 3.037 6.975 7.988 9.083 19.764 6.49zM285.152 73.981c.277 2.414 1.961 3.178 4.27 2.912L327 72.565c2.729-.315 4.416 1.406 4.718 4.03.291 2.519-.937 4.788-3.667 5.1l-40.621 4.678c-7.453.859-11.081-2.02-12-10l-6.817-59.2c-.931-8.083 1.948-11.711 9.4-12.57L317.69.034c2.729-.315 4.416 1.406 4.719 4.03s-.939 4.788-3.668 5.1l-36.947 4.255c-2.52.29-3.436 1.566-3.146 4.085l2.5 21.728 35.793-4.122c2.624-.3 4.311 1.418 4.614 4.042a4.14 4.14 0 01-3.586 4.88l-35.794 4.123zM407.484 87.532c-2.247 3.169-4.384 3.979-7.679 3.222-3.192-.733-4.864-2.419-5.477-6.354l-6.585-42.6c-1.282-8.1-2.794-24.166-3.284-31-1.229 6.764-4.276 25.685-7.611 40.2l-6.577 28.625c-.64 2.781-2.9 3.669-5.786 3.007-2.78-.639-4.429-2.427-3.79-5.207l16.372-71.253c.851-3.707 4.073-5.46 7.985-4.561 4.53 1.041 6.314 3.185 6.984 7.35l8.015 51.924c.9 5.518 2.075 15.978 1.983 20.619a168.573 168.573 0 0110.935-17.868l29.474-42.869c2.594-3.74 5.317-4.741 9.848-3.7 3.81.876 5.942 3.859 5.091 7.566L441.01 95.886c-.639 2.78-3.006 3.645-5.683 3.031-2.78-.639-4.532-2.451-3.893-5.232l6.554-28.521c3.359-14.621 8.83-32.769 10.85-39.676-3.47 6.14-11.9 19.7-16.288 26.069zM508.52 47.556c1.433-2.588 3.947-2.767 6.442-1.385 2.589 1.433 3.865 3.709 2.433 6.3l-36.28 65.541c-1.381 2.495-4.039 2.715-6.628 1.282-2.5-1.381-3.628-3.7-2.246-6.194zM561.705 81.585c2.109-2.367 4.679-1.916 6.809-.019 2.208 1.968 2.872 4.4.834 6.687L525.912 137c-1.616 1.814-1.434 3.674.381 5.291l27.925 24.88c2.05 1.828 1.9 4.381.141 6.353-1.687 1.893-4.416 2.575-6.467.747l-30.291-26.989c-5.6-4.99-5.868-9.614-.526-15.61zM604.993 244.957a4.553 4.553 0 01-1.85 2.243 5.584 5.584 0 01-4.818.225 4.98 4.98 0 01-2.556-2.151 4.654 4.654 0 01-.4-4.092l18.263-46.246-16.017-3.7-21.624 13.243c-2.432 1.49-4.8.46-6.287-1.972-1.546-2.524-1.387-5.1 1.045-6.588l63.887-39.119c2.522-1.545 4.8-.461 6.342 2.062 1.491 2.433 1.422 4.952-1.1 6.5l-31.446 19.258 54.034 11.759a4.4 4.4 0 012.882 2.076 5.2 5.2 0 01-1.746 7.264 3.988 3.988 0 01-2.985.589l-37.663-8.9zM114.358 107.034a7.339 7.339 0 01-4.844 3.142 7.44 7.44 0 01-8.732-6.038 7.333 7.333 0 011.229-5.641 7.505 7.505 0 1112.347 8.537m-17.177 24.842a7.554 7.554 0 111.229-5.641 7.333 7.333 0 01-1.229 5.641m1.128 16.283l2.117-3.061q18.646 7.469 29.834-8.71t-2.386-30.988l2.151-3.112q9.641 8.373 11.341 18.573t-4.934 19.794q-6.638 9.6-16.759 11.581t-21.364-4.078m48.26-1.689a39.727 39.727 0 006.306-29.212 42.026 42.026 0 00-18.1-28.069 39.729 39.729 0 00-29.189-6.308 42.09 42.09 0 00-28.148 18.138 39.692 39.692 0 00-6.3 29.255 42.113 42.113 0 0018.144 28.1 39.615 39.615 0 0029.2 6.274 42.151 42.151 0 0028.091-18.174m3.864 5.034a45.541 45.541 0 01-29.006 18.736 48.179 48.179 0 01-37.226-8.035 45.469 45.469 0 01-18.687-28.985 48.243 48.243 0 018.06-37.242 45.535 45.535 0 0128.982-18.7 48.169 48.169 0 0137.211 8.023 45.488 45.488 0 0118.7 28.995 48.215 48.215 0 01-8.036 37.21"/>
</svg>
