<svg xmlns="http://www.w3.org/2000/svg" viewBox="0 0 70.27 9.44"><defs><style>.cls-1{fill:#e9acce;}</style></defs><title>rmilk_logo</title><g id="Layer_2" data-name="Layer 2"><g id="Layer_1-2" data-name="Layer 1"><path class="cls-1" d="M2.59.22a2,2,0,0,1,.49.34A2.28,2.28,0,0,1,3.44,1a1.91,1.91,0,0,1,.23.53L5.81.1,7.49,2.47,5.81,3.62l1,.86.14.18.17.24L7.17,5l.08.14a1.15,1.15,0,0,1,.12.23L8,7.07l.28.32.29-.2.18.2L7.55,8.45a.6.6,0,0,1-.42-.2,1.91,1.91,0,0,1-.29-.4.63.63,0,0,0-.07-.14.61.61,0,0,0-.07-.14L6.28,6.25a2.57,2.57,0,0,0-.73-1.08,1.75,1.75,0,0,0-1.22-.52V6.79l1.24.49L5.81,7,6,7.21,4.76,8.53H4.62A2.55,2.55,0,0,0,3.68,8a3.52,3.52,0,0,0-1.09-.24H2.1a5.19,5.19,0,0,0-1,.19,5,5,0,0,0-.9.37l-.2,0a1.34,1.34,0,0,1,.34-.56L.59,7.5l.35-.31,1.26-.6V6.32A2.2,2.2,0,0,0,1.62,4.9a3.29,3.29,0,0,0-1.25-1,.14.14,0,0,1-.1,0L2.21,2.56V1.42A.87.87,0,0,0,1.86.95,1,1,0,0,0,1.28.72H1.2l0,0L1,.76.77.83l-.1,0H.37A1,1,0,0,1,.78.4L1,.26,1.4.13l.14,0,.21,0h.11L2,0A1.77,1.77,0,0,1,2.59.22ZM1.32,3.47a1.33,1.33,0,0,0,.24.18,1.72,1.72,0,0,0,.23.18l.42.38V2.88ZM3.65,1.86V6.7L4,6.77V1.61Zm.7-.4V4.33L6.23,3.07l-1.37-2Z"/><path class="cls-1" d="M13.43.14a.39.39,0,0,0,.19,0h.1l.09,0,.38.07a5.3,5.3,0,0,1,2.23,1.14,2.8,2.8,0,0,1,1,2.22A2.67,2.67,0,0,1,17.09,5q-.32.55-.8,1.21L15,7.39,14.12,8l-1.21.47H12.4a3.18,3.18,0,0,1-1.92-.61A3,3,0,0,1,9.31,6.17L9.14,4.86l.1-.9.37-1.28Zm-2.08,2h0s0,0,0,0h-.07l0,0h0a4.88,4.88,0,0,0-.54.9,3.72,3.72,0,0,0-.34,1.19,1.76,1.76,0,0,0,0,.24l0,.43q0,.16.12.46l0,.11.05.11.1.23a2.18,2.18,0,0,0,.17.3l.23.28a1.5,1.5,0,0,0,.25-.37.91.91,0,0,0,.1-.4Zm1.09-.66V4.58a1.29,1.29,0,0,1-.08.47l-.18.38,0,0h0l-.95,1a2.71,2.71,0,0,0,.79.63,3,3,0,0,0,1,.29v-6Zm.82.07V2.75q.08.5.84.7l.11,0h.51a1.45,1.45,0,0,0,1-.56,3.32,3.32,0,0,0-.87-.82,3.23,3.23,0,0,0-1.09-.5l-.22,0h-.2Zm1.19,3.32s0,0,0,0h0a1.89,1.89,0,0,0-.67.25,1.27,1.27,0,0,0-.46.53V7.58A3.52,3.52,0,0,0,14.84,7a2.73,2.73,0,0,0,1.07-1.32.68.68,0,0,0-.31-.42,1.54,1.54,0,0,0-.84-.35l-.26,0Zm1.46-1.64a2.1,2.1,0,0,1-.41.3l-.58.23h-.16l-.3,0h-.2l-.19,0a2.11,2.11,0,0,1-.79-.37V5.1a3.46,3.46,0,0,1,.41-.24,2.35,2.35,0,0,1,.43-.17l.2,0h.38l.19,0,.29.08.29.13a2,2,0,0,1,.53.37.63.63,0,0,0,.1-.2l0-.11a.53.53,0,0,1,0-.1l0-.1V4.67a.26.26,0,0,1,0-.08V4.51s0-.14,0-.26a.69.69,0,0,0,0-.14.52.52,0,0,0,0-.13,1,1,0,0,1,0-.13l0-.14s0-.14-.12-.37a.39.39,0,0,1,0-.12Z"/><path class="cls-1" d="M21.68,0l2.38.89L24.34.4l.25.12L23.42,2.65h.24l.82.11a4.13,4.13,0,0,1,1.7.77A1.93,1.93,0,0,1,27,5.1a2.12,2.12,0,0,1-.46,1.31,6,6,0,0,1-.95,1l-1.72,1h-.12l-1.49-.61-1.67.61-.24,0-.26,0h-.36a2.39,2.39,0,0,1-.91-.2,1,1,0,0,1-.55-.7l0-.07v-.2q0-.8,1.07-1.2a2.11,2.11,0,0,1,.49-.11l.3,0a.44.44,0,0,0,.19,0h.11a1,1,0,0,0,.26,0h.14l.29,0,.19-.37s0,0-.07,0h-.53l-.07,0h0a2.08,2.08,0,0,1-2-1.46v0h0V4.24h0v0a1.06,1.06,0,0,1,.28-.77,1.87,1.87,0,0,1,.71-.49A3.16,3.16,0,0,1,19.84,2a2.62,2.62,0,0,1,.54-.75Zm-2.4,7.19a.73.73,0,0,0-.5.43.1.1,0,0,0,0,.07v.17l0,0v0l.08.1.1.1.25.12.26,0,.19,0h.46a4.38,4.38,0,0,0,1.06-.26q.2-.08.7-.35L20.2,7.26h-.7Zm.35-4a.36.36,0,0,1-.1.08l-.07.08-.06.07-.06.19v.15a.83.83,0,0,0,.24.43,2.51,2.51,0,0,0,.47.3l.13.06h0l0,0h.14l.09,0h.17l.53,0h.31l.17,0H22L22.31,4a.15.15,0,0,1-.11,0h-.1l-.19,0-.19,0-.17,0h-.34a1.64,1.64,0,0,1-1.58-.94Zm1.7-2a1.25,1.25,0,0,0-.64.33.8.8,0,0,0-.25.58.74.74,0,0,0,0,.11.79.79,0,0,0,0,.11l0,.08s0,0,0,.07a.69.69,0,0,0,.62.41l.07-.06L23,2.75,23.45,2l-.12,0,0,0,0,0-.05,0-.28-.16-.29-.14a5.53,5.53,0,0,0-.59-.24,1.87,1.87,0,0,0-.34-.1l-.34,0ZM24,5.68l-2.35.14-.22.46L23.4,7a.17.17,0,0,0,.14,0l.14-.06.18-.13.08-.07L24,6.62a1.28,1.28,0,0,0,.24-.37.38.38,0,0,1,0-.1V5.94a.07.07,0,0,1,0,0v0l0,0v0l-.1-.06,0,0,0,0,0,0h0ZM23.54,4a.61.61,0,0,1-.31.06h-.11a1.59,1.59,0,0,1-.31,0H22.7l-.35.54,1.76-.07a.26.26,0,0,0,.16,0l.17,0a1.56,1.56,0,0,1,.71.4,1,1,0,0,1,.34.71v0a.05.05,0,0,0,0,0v.1a0,0,0,0,0,0,0V6l0,0a.11.11,0,0,0,0,0,2.48,2.48,0,0,1-.19.26l0,.07,0,.05L25,6.59l-1.12.58.95.4a2.72,2.72,0,0,0,.83-.78,1.76,1.76,0,0,0,.36-1v-.1l0-.2a.27.27,0,0,0,0-.1,1.19,1.19,0,0,0-.07-.19l0-.1,0-.1a2.37,2.37,0,0,0-2.16-1Z"/><path class="cls-1" d="M32.27.1A3.9,3.9,0,0,0,34.5.82h.11l.13,0H35L33.25,2.6h1.3l-.6,1.24h-2V7.31l0,0h.1l.18,0h.18a3.14,3.14,0,0,0,1.36-.32A4.61,4.61,0,0,0,35,6.28a1.78,1.78,0,0,1-.58,1.1,4,4,0,0,1-1.08.74l-.24.11-.2.05a2.14,2.14,0,0,1-.37.08l-.18,0h-.16l-.14,0h-.48a3.73,3.73,0,0,1-2.08-.62A3.39,3.39,0,0,1,28.1,6.17a3.83,3.83,0,0,1-.25-1.38,6.9,6.9,0,0,1,.23-1.44.54.54,0,0,0,.07-.17L28.24,3A3.91,3.91,0,0,1,30.43.84l.23,0a4.1,4.1,0,0,0-1.74,3v0h0v0h0a3.32,3.32,0,0,0,.67,2.06V6h0l.12-.3q0-.44.12-1.36s0-.12,0-.23V3.5c0-.26,0-.39,0-.41a2,2,0,0,1,0-.26,2,2,0,0,1,0-.26V2.5a.1.1,0,0,1,0-.06V2.36s0,0,0-.06Zm-.65,1.19-.47.42V4.44l-.1.42a9,9,0,0,1-1,1.25l-.1.1,0,0,0,0a3.53,3.53,0,0,0,1.74,1Zm.32.18V3.59L33.43,2Z"/><path class="cls-1" d="M41.21,0l.36.26.16.14.16.14a.11.11,0,0,0,0,.05l0,0,.18.41a2.17,2.17,0,0,1,.12.41l2-1.42,1.3.89A1.78,1.78,0,0,1,45.74.7a1.8,1.8,0,0,1,.32-.14h.07V.66a0,0,0,0,0,0,0V.84a.19.19,0,0,0,0,.07l0,0a1.89,1.89,0,0,0-.32.67V6.91l.25.44H46l.06,0,.05,0,.06,0,0,0,0,0,.19.17L45.32,8.42H45.2a1.64,1.64,0,0,1-.62-.53A1.92,1.92,0,0,1,44.32,7V1.54l-.85-.6s0,0,0,0h0L43.33,1l-.05,0,0,0V3.67H44l-.77,1v2l.18,0,.13-.1.2.13-2,1.7q-.18-.22-.58-.62a6.76,6.76,0,0,0-.7-.56A.79.79,0,0,0,40.72,7a.63.63,0,0,0,.1-.26v-2H39.46V7a3.43,3.43,0,0,1-.33,1.19,1.44,1.44,0,0,1-.92.71h-.42l-.31,0-.32,0-.34-.06H36.5A1.09,1.09,0,0,0,36,9a1,1,0,0,0-.41.47V9.36a.38.38,0,0,0,0-.1V9.07a1.13,1.13,0,0,1,.32-.77,2,2,0,0,1,.76-.43l.07,0h.12l0,0h0Q38,7.81,38.11,7V6.82a1.8,1.8,0,0,0-.84-1.56.65.65,0,0,0-.22-.07l-.11,0-.11,0h-.39l-.22,0-.1,0,0,0-.05,0h0v0h0v0q0-.72.91-1l.12,0,.11,0,.11,0h.11a4.57,4.57,0,0,1,.31-1.45,2.47,2.47,0,0,1,1-1.13A20.83,20.83,0,0,1,41.21,0ZM39.43,1.36q-.14.13-.41.43a2,2,0,0,0-.26.49V6.79a1,1,0,0,1-.25.63,1.75,1.75,0,0,1-.52.44l0,0,0,0,.11,0h0l0,0h.2l.25-.08A.5.5,0,0,0,39,7.58v0h0v0h0l0-.05v0l.06-.25a.24.24,0,0,1,0-.07V2.26a.53.53,0,0,1,0-.11l0-.11a.15.15,0,0,1,0-.06q0-.11.08-.31a1.81,1.81,0,0,1,.13-.29ZM40.27,1H40.2a0,0,0,0,1,0,0H40.1l0,0h0a3.28,3.28,0,0,0-.3.41,2.08,2.08,0,0,0-.24.46V4.42L40,3.62h.82V1.56a.57.57,0,0,0-.19-.32A.77.77,0,0,0,40.27,1Zm2.65.43-.72.52V3.67h.72Zm-.7,3.29V6.77a1.05,1.05,0,0,0,.06.4,1,1,0,0,0,.19.32.65.65,0,0,0,.25-.09,1.22,1.22,0,0,0,.2-.16V4.7Z"/><path class="cls-1" d="M49,.14h.26a2.28,2.28,0,0,0,.38,0l.38,0,.19,0,.18,0h.38l.12,0a.94.94,0,0,0,.31,0l.31,0h0l.14,0,.14,0A3.38,3.38,0,0,0,51,1.91V2.1a.23.23,0,0,0,0,.07v0a.07.07,0,0,0,0,0v.1a2,2,0,0,0,0,.23v.48a8.49,8.49,0,0,0,.06.86q0,.5.2,1.51l.06.2v.23s0,0,0,.06V6a.2.2,0,0,0,0,.06.94.94,0,0,1-.14.44.94.94,0,0,1-.26.35L50.44,7,50.25,7l-.19.05h0l0,0h-.22l.06.06a.15.15,0,0,1,.07.07l.14.14.4.31a1.68,1.68,0,0,0,.47.23L51,8h.25l.11,0,.08,0,0,0,0,0,0,0,0,0,0,0,0,0,0,0,0,0,0-.11,0-.11a.38.38,0,0,1,0-.11.19.19,0,0,1,0-.06V7.25a.23.23,0,0,1,0-.07V7L51.42,3l.07-1.32A2.58,2.58,0,0,1,52.12.65,1.48,1.48,0,0,1,53.23.17l.17,0,0,.07,0,0,0,0,0,0-.05,0h-.05l0,0a2,2,0,0,0-.29.19.63.63,0,0,0-.19.29v0a.1.1,0,0,0,0,.05V1a.25.25,0,0,1,0,.07l0,.1v0l0,.18a.84.84,0,0,0,0,.16v.11a.38.38,0,0,0,0,.11v.08l0,.08V2L53,5.14s0,.08,0,.08v.56a.58.58,0,0,0,0,.13V6a.55.55,0,0,0,0,.13,4.15,4.15,0,0,1-.38,1.31,1.53,1.53,0,0,1-1.09.85l-.13,0-.14,0h-.13l-.11,0h-.62L48.7,7.88l0,0h-.23a1,1,0,0,0-.65.25,1,1,0,0,0-.31.37v0l0,0a.1.1,0,0,1,0,0h0a.29.29,0,0,0,0-.08.21.21,0,0,1,0-.1,1,1,0,0,1,.35-.73A2.15,2.15,0,0,1,48.48,7l.12,0,.1,0,.14,0h.1l.7,0a0,0,0,0,0,0,0h0l.08,0,0,0,0,0,.08-.08.08-.1a.52.52,0,0,0,0-.11V6.35a.65.65,0,0,1,0-.13V6a.1.1,0,0,1,0,0V5.84a.41.41,0,0,1,0-.12V5.6a.43.43,0,0,1,0-.12q-.19-1.22-1-1.22l-.1,0-.43.1-.22.06-.11,0-.12,0a1.24,1.24,0,0,1,.6-.83,1.92,1.92,0,0,1,1-.26A3.52,3.52,0,0,1,50.83.82l-.08,0-.11.05L50.48,1l-.36.1-.34,0-.38,0-.19,0L49,1l-.19,0-.17,0a1.16,1.16,0,0,0-.45.22,1.38,1.38,0,0,0-.32.41,1.57,1.57,0,0,1,.35-.91A1.29,1.29,0,0,1,49,.17Z"/><path class="cls-1" d="M60,.15s0,0,0,0a.12.12,0,0,1,.11.1.41.41,0,0,1-.1.13l0,0-.07,0a.91.91,0,0,0-1,.79l.11,2.53a3.36,3.36,0,0,1-.23,1.3,2.64,2.64,0,0,1-.7,1.06l-1,.92L57.71,7l.76-.16.24,0h.18l.47,0a3.93,3.93,0,0,1,.5.1l.12,0,.17,0,.06,0,.1,0a.36.36,0,0,0,.14.06l.08.06.11.08.18.14h0s0,0,0,0l.08,0,.07,0h0l0,0,0,0,0,0,.08-.11,0,0,0,0,.24.17L60.13,8.63a3.27,3.27,0,0,0-1.91-.82h-.64l-.24,0-.17,0-.24,0a5.61,5.61,0,0,0-1,.24l-.52.18a3.1,3.1,0,0,0-.38.17l-.18-.1L56,7.21l.1-.18,0-.08a.85.85,0,0,0,0-.12.53.53,0,0,0,0-.13.52.52,0,0,0,0-.08l0-.14s0-.06,0-.08V6.34a.17.17,0,0,1,0-.07,1.16,1.16,0,0,1,0-.14.51.51,0,0,1,0-.14l0-.05-.05-.07L56,5.75a1.43,1.43,0,0,0-.37-.24l-.09,0-.13,0-.11,0-.12,0a.53.53,0,0,1,.25-.18,1,1,0,0,1,.34-.07h.26l.11,0h.08V5A.57.57,0,0,0,56,4.55a2.08,2.08,0,0,0-.54-.31l-.24,0-.13,0H55l-.13,0-.07,0a1,1,0,0,1,.46-.4,2,2,0,0,1,.61-.12l.28,0v0a.07.07,0,0,1,0,0V3.48a.17.17,0,0,1,0-.07.49.49,0,0,1,0-.1V3.19A3,3,0,0,1,57,1l-.16.08-.15.05-.32.11-.22,0H55.7a.29.29,0,0,1-.14,0l-.1,0a.35.35,0,0,0-.18-.06l-.18,0-.11,0h-.44l-.13.13a.07.07,0,0,0,0,0l0,.06a.42.42,0,0,1-.08.1l-.11.14h0a.1.1,0,0,1-.07,0h0l0,0v0a1.21,1.21,0,0,1,.38-.88,1.65,1.65,0,0,1,.89-.49l.18,0h.18l1.27.35a0,0,0,0,0,0,0h.23l.16,0a.69.69,0,0,0,.25-.07l.47-.19a.3.3,0,0,0,.13,0h0l0,.06-.74.84a1.73,1.73,0,0,0,0,.18l-.06.26a3.07,3.07,0,0,1-.07.41l0,.32c0,.11,0,.21,0,.32a6.64,6.64,0,0,0,0,.83c0,.06,0,.12,0,.19s0,.15,0,.24l0,.26c0,.06,0,.11,0,.16a1.22,1.22,0,0,0,0,.13s0,.09,0,.14v.74a7.09,7.09,0,0,1-.47,1.18,8.18,8.18,0,0,1-.65,1h0v.13A3.94,3.94,0,0,0,58,4.84V4.76a.07.07,0,0,1,0,0v-.2a3.15,3.15,0,0,0,0-.53q0-.36-.05-.64t-.07-.47c0-.13,0-.24,0-.33s0-.17,0-.22V2.21a.59.59,0,0,1,0-.12,2.69,2.69,0,0,1,.41-1.3A1.77,1.77,0,0,1,58.91.3a2.35,2.35,0,0,1,.83-.18h.18v0A.16.16,0,0,0,60,.15Z"/><path class="cls-1" d="M65.44,1.62a6.84,6.84,0,0,0-.14.79c0,.11,0,.24,0,.37s0,.28,0,.43l0,.28q0,.08,0,.06V4a1.4,1.4,0,0,0,0,.18V4.3a.57.57,0,0,0,0,.11.38.38,0,0,0,0,.1v.1a0,0,0,0,0,0,0v.11c0,.06,0,.15,0,.25s0,.21,0,.34a1.73,1.73,0,0,1-.2.66.07.07,0,0,0,0,0L65,6.11l0,.06-.44.4-.65.56-.37.34-.22.18-.22.17-.2.19L63,7.9l.21-.13.22-.13.18-.1.14-.07.08,0,.08,0a6,6,0,0,0,.88-.49,2.44,2.44,0,0,0,.72-.76l0-.1a1.46,1.46,0,0,1,0-.17l.05-.14,0-.12a.46.46,0,0,1,0-.1,1.88,1.88,0,0,0,0-.21v-3l0-.14c0-.05,0-.12,0-.2L66,1.58a1,1,0,0,1,0-.17l.07-.2.07-.2.06-.16.14-.36A2.79,2.79,0,0,1,66.5.14l.29,0L66.37,1l-.09.29c0,.11-.07.25-.11.41A6.12,6.12,0,0,0,66,2.3V3a14.94,14.94,0,0,0,2-1.72l.1,0,1.24,1.46-2,1.61A4.72,4.72,0,0,1,69.12,6.2l.18.32a1.07,1.07,0,0,0,.17.31l.28.37.32-.28.2.16L69.11,8.45H69A5.17,5.17,0,0,1,68,7L66.65,8.45a6.26,6.26,0,0,0-.7-.22l-.15,0-.21,0-.28-.06-.27,0-.27,0-.28,0H64l-.1,0h-.07l-.14,0-1.26.37h-.23a.15.15,0,0,1,0-.11v0L63.3,7a.53.53,0,0,0,.11-.2l0-.11a1.63,1.63,0,0,0,0-.16.19.19,0,0,1,0-.06V6.36a.19.19,0,0,1,0-.06V6.2a0,0,0,0,1,0,0v-.1a.68.68,0,0,0-.1-.24.65.65,0,0,0-.17-.2l0,0-.1,0h-.25l-.13,0-.18.1-.1,0q0-.7.84-.7h.19l.1,0,.14,0L64,5.1a1.45,1.45,0,0,0-.37-1,1.1,1.1,0,0,0-.89-.42h-.28l-.17.07-.13,0v0a.07.07,0,0,1,0,0,.52.52,0,0,0,0-.1.2.2,0,0,0,.07-.11.2.2,0,0,1,.07-.11,1.46,1.46,0,0,1,.41-.31A1.14,1.14,0,0,1,63.25,3h.08l.14,0,.15,0,.17.07.08,0a3.44,3.44,0,0,1,.52-1.4,5.38,5.38,0,0,1,1-1.07l-.5.23-.31.14a2.75,2.75,0,0,1-.86.2h-.37l-.13,0H63l-.08,0h-.11l-.07,0-.12,0-.14.07-.09,0h0l-.1.1-.13.13-.06.08-.06.06,0,0H62l-.06,0h0v0h0V1.79h0v0a1.46,1.46,0,0,1,0-.16,1.07,1.07,0,0,1,0-.17A2.06,2.06,0,0,1,62.36.6a1.42,1.42,0,0,1,.77-.44h.07l.1,0a.29.29,0,0,0,.17,0h.1a.34.34,0,0,0,.15,0l.16,0a3.86,3.86,0,0,1,.53.12l.29,0A3.5,3.5,0,0,0,65.63.2h0l.13,0,.19,0v0A6.59,6.59,0,0,0,65.44,1.62Zm.73,3.67H66A2.65,2.65,0,0,1,65.18,7l.4,0a.33.33,0,0,0,.14,0h.14a4.29,4.29,0,0,1,1.4.32l.18-.1.07-.06.1-.08a.29.29,0,0,1,0-.1.07.07,0,0,0,0-.05l0-.09a.13.13,0,0,0,0-.07l0-.08a0,0,0,0,1,0,0v0l-.22-.36a2,2,0,0,0-1.34-1v0ZM66,3.4V4.91l1.93-1.46,0-.17-.79-.88Z"/></g></g></svg>