<svg class="rosemilk_logo" xmlns="http://www.w3.org/2000/svg" viewBox="0 0 70.27 9.44"><defs></defs><g id="Layer_2" data-name="Layer 2"><g id="Layer_1-2" data-name="Layer 1"><path class="cls-1" d="M2.59.22a2 2 0 0 1 .49.34 2.28 2.28 0 0 1 .36.44 1.91 1.91 0 0 1 .23.53L5.81.1l1.68 2.37-1.68 1.15 1 .86.14.18.17.24.05.1.08.14a1.15 1.15 0 0 1 .12.23L8 7.07l.28.32.29-.2.18.2-1.2 1.06a.6.6 0 0 1-.42-.2 1.91 1.91 0 0 1-.29-.4.63.63 0 0 0-.07-.14.61.61 0 0 0-.07-.14l-.42-1.32a2.57 2.57 0 0 0-.73-1.08 1.75 1.75 0 0 0-1.22-.52v2.14l1.24.49.24-.28.19.21-1.24 1.32h-.14A2.55 2.55 0 0 0 3.68 8a3.52 3.52 0 0 0-1.09-.24H2.1a5.19 5.19 0 0 0-1 .19 5 5 0 0 0-.9.37H0a1.34 1.34 0 0 1 .34-.56l.25-.26.35-.31 1.26-.6v-.27a2.2 2.2 0 0 0-.58-1.42 3.29 3.29 0 0 0-1.25-1 .14.14 0 0 1-.1 0l1.94-1.34V1.42a.87.87 0 0 0-.35-.47 1 1 0 0 0-.58-.23H1.2L1 .76.77.83h-.4A1 1 0 0 1 .78.4L1 .26l.4-.13H1.86L2 0a1.77 1.77 0 0 1 .59.22zM1.32 3.47a1.33 1.33 0 0 0 .24.18 1.72 1.72 0 0 0 .23.18l.42.38V2.88zm2.33-1.61V6.7l.35.07V1.61zm.7-.4v2.87l1.88-1.26-1.37-2zM13.43.14a.39.39 0 0 0 .19 0h.19l.38.07a5.3 5.3 0 0 1 2.23 1.14 2.8 2.8 0 0 1 1 2.22A2.67 2.67 0 0 1 17.09 5q-.32.55-.8 1.21L15 7.39l-.88.61-1.21.47h-.51a3.18 3.18 0 0 1-1.92-.61 3 3 0 0 1-1.17-1.69l-.17-1.31.1-.9.37-1.28zm-2.08 2h-.07a4.88 4.88 0 0 0-.54.9 3.72 3.72 0 0 0-.34 1.19 1.76 1.76 0 0 0 0 .24v.43q0 .16.12.46v.11l.05.11.1.23a2.18 2.18 0 0 0 .17.3l.23.28a1.5 1.5 0 0 0 .25-.37.91.91 0 0 0 .1-.4zm1.09-.66v3.1a1.29 1.29 0 0 1-.08.47l-.18.38-.95 1a2.71 2.71 0 0 0 .79.63 3 3 0 0 0 1 .29v-6zm.82.07v1.2q.08.5.84.7h.62a1.45 1.45 0 0 0 1-.56 3.32 3.32 0 0 0-.87-.82 3.23 3.23 0 0 0-1.09-.5H13.34zm1.19 3.32a1.89 1.89 0 0 0-.67.25 1.27 1.27 0 0 0-.46.53v1.93A3.52 3.52 0 0 0 14.84 7a2.73 2.73 0 0 0 1.07-1.32.68.68 0 0 0-.31-.42 1.54 1.54 0 0 0-.84-.35h-.26zm1.46-1.64a2.1 2.1 0 0 1-.41.3l-.58.23H14.07a2.11 2.11 0 0 1-.79-.37V5.1a3.46 3.46 0 0 1 .41-.24 2.35 2.35 0 0 1 .43-.17h.77l.29.08.29.13a2 2 0 0 1 .53.37.63.63 0 0 0 .1-.2v-.11a.53.53 0 0 1 0-.1v-.19a.26.26 0 0 1 0-.08v-.08-.26a.69.69 0 0 0 0-.14.52.52 0 0 0 0-.13 1 1 0 0 1 0-.13v-.14s0-.14-.12-.37a.39.39 0 0 1 0-.12zM21.68 0l2.38.89.28-.49.25.12-1.17 2.13h.24l.82.11a4.13 4.13 0 0 1 1.7.77A1.93 1.93 0 0 1 27 5.1a2.12 2.12 0 0 1-.46 1.31 6 6 0 0 1-.95 1l-1.72 1h-.12l-1.49-.61-1.67.61h-.86a2.39 2.39 0 0 1-.91-.2 1 1 0 0 1-.55-.7v-.27q0-.8 1.07-1.2a2.11 2.11 0 0 1 .49-.11h.3a.44.44 0 0 0 .19 0h.11a1 1 0 0 0 .26 0h.43l.19-.37H20.64a2.08 2.08 0 0 1-2-1.46v.14a1.06 1.06 0 0 1 .28-.77 1.87 1.87 0 0 1 .71-.49 3.16 3.16 0 0 1 .21-.98 2.62 2.62 0 0 1 .54-.75zm-2.4 7.19a.73.73 0 0 0-.5.43.1.1 0 0 0 0 .07v.17l.08.1.1.1.25.12h.91a4.38 4.38 0 0 0 1.06-.26q.2-.08.7-.35l-1.68-.31h-.7zm.35-4a.36.36 0 0 1-.1.08l-.07.08-.06.07-.06.19v.15a.83.83 0 0 0 .24.43 2.51 2.51 0 0 0 .47.3l.13.06H22l.31-.55a.15.15 0 0 1-.11 0h-.99a1.64 1.64 0 0 1-1.58-.94zm1.7-2a1.25 1.25 0 0 0-.64.33.8.8 0 0 0-.25.58.74.74 0 0 0 0 .11.79.79 0 0 0 0 .11V2.47a.69.69 0 0 0 .62.41l.07-.06L23 2.75l.45-.75H23.28L23 1.84l-.29-.14a5.53 5.53 0 0 0-.59-.24 1.87 1.87 0 0 0-.34-.1h-.34zM24 5.68l-2.35.14-.22.46L23.4 7a.17.17 0 0 0 .14 0l.14-.06.18-.13.08-.07.06-.12a1.28 1.28 0 0 0 .24-.37.38.38 0 0 1 0-.1v-.21l-.1-.06zM23.54 4a.61.61 0 0 1-.31.06h-.11a1.59 1.59 0 0 1-.31 0h-.11l-.35.54 1.76-.07a.26.26 0 0 0 .16 0h.17a1.56 1.56 0 0 1 .71.4 1 1 0 0 1 .34.71V6a2.48 2.48 0 0 1-.19.26V6.38l-.3.21-1.12.58.95.4a2.72 2.72 0 0 0 .83-.78 1.76 1.76 0 0 0 .36-1V5.49a.27.27 0 0 0 0-.1 1.19 1.19 0 0 0-.07-.19V5a2.37 2.37 0 0 0-2.16-1zM32.27.1a3.9 3.9 0 0 0 2.23.72h.5L33.25 2.6h1.3l-.6 1.24h-2v3.47h.46a3.14 3.14 0 0 0 1.36-.32A4.61 4.61 0 0 0 35 6.28a1.78 1.78 0 0 1-.58 1.1 4 4 0 0 1-1.08.74l-.24.11-.2.05a2.14 2.14 0 0 1-.37.08h-.96a3.73 3.73 0 0 1-2.08-.62 3.39 3.39 0 0 1-1.39-1.57 3.83 3.83 0 0 1-.25-1.38 6.9 6.9 0 0 1 .23-1.44.54.54 0 0 0 .07-.17l.09-.18A3.91 3.91 0 0 1 30.43.84h.23a4.1 4.1 0 0 0-1.74 3 3.32 3.32 0 0 0 .67 2.06V6l.12-.3q0-.44.12-1.36V3.5v-.41a2 2 0 0 1 0-.26 2 2 0 0 1 0-.26V2.5a.1.1 0 0 1 0-.06v-.08-.06zm-.65 1.19l-.47.42v2.73l-.1.42a9 9 0 0 1-1 1.25l-.1.1a3.53 3.53 0 0 0 1.74 1zm.32.18v2.12L33.43 2zM41.21 0l.36.26.16.14.16.14a.11.11 0 0 0 0 .05l.18.41a2.17 2.17 0 0 1 .12.41l2-1.42 1.3.89a1.78 1.78 0 0 1 .25-.18 1.8 1.8 0 0 1 .32-.14h.07v.28a.19.19 0 0 0 0 .07 1.89 1.89 0 0 0-.32.67v5.33l.25.44H46 46.17l.19.17-1.04.9h-.12a1.64 1.64 0 0 1-.62-.53 1.92 1.92 0 0 1-.26-.89V1.54l-.85-.6-.14.06h-.05v2.67H44l-.77 1v2h.18l.13-.1.2.13-2 1.7q-.18-.22-.58-.62a6.76 6.76 0 0 0-.7-.56.79.79 0 0 0 .26-.22.63.63 0 0 0 .1-.26v-2h-1.36V7a3.43 3.43 0 0 1-.33 1.19 1.44 1.44 0 0 1-.92.71h-1.05l-.34-.06h-.32A1.09 1.09 0 0 0 36 9a1 1 0 0 0-.41.47v-.11a.38.38 0 0 0 0-.1v-.19a1.13 1.13 0 0 1 .32-.77 2 2 0 0 1 .76-.43h.19Q38 7.81 38.11 7v-.18a1.8 1.8 0 0 0-.84-1.56.65.65 0 0 0-.22-.07h-.98q0-.72.91-1H37.43a4.57 4.57 0 0 1 .31-1.45 2.47 2.47 0 0 1 1-1.13A20.83 20.83 0 0 1 41.21 0zm-1.78 1.36q-.14.13-.41.43a2 2 0 0 0-.26.49v4.51a1 1 0 0 1-.25.63 1.75 1.75 0 0 1-.52.44h.31l.25-.08a.5.5 0 0 0 .45-.2v-.05l.06-.25a.24.24 0 0 1 0-.07V2.26a.53.53 0 0 1 0-.11v-.11a.15.15 0 0 1 0-.06q0-.11.08-.31a1.81 1.81 0 0 1 .13-.29zm.84-.36h-.17a3.28 3.28 0 0 0-.3.41 2.08 2.08 0 0 0-.24.46v2.55l.44-.8h.82V1.56a.57.57 0 0 0-.19-.32.77.77 0 0 0-.36-.24zm2.65.43l-.72.52v1.72h.72zm-.7 3.29v2.05a1.05 1.05 0 0 0 .06.4 1 1 0 0 0 .19.32.65.65 0 0 0 .25-.09 1.22 1.22 0 0 0 .2-.16V4.7zM49 .14h.26a2.28 2.28 0 0 0 .38 0h1.25a.94.94 0 0 0 .31 0H51.79A3.38 3.38 0 0 0 51 1.91v.19a.23.23 0 0 0 0 .07v.1a2 2 0 0 0 0 .23v.48a8.49 8.49 0 0 0 .06.86q0 .5.2 1.51l.06.2V6a.2.2 0 0 0 0 .06.94.94 0 0 1-.14.44.94.94 0 0 1-.26.35l-.48.15h-.19l-.19.05h-.22l.06.06a.15.15 0 0 1 .07.07l.14.14.4.31a1.68 1.68 0 0 0 .47.23L51 8h.44v-.22a.38.38 0 0 1 0-.11.19.19 0 0 1 0-.06v-.36a.23.23 0 0 1 0-.07V7l-.02-4 .07-1.32a2.58 2.58 0 0 1 .63-1.03 1.48 1.48 0 0 1 1.11-.48h.17v.07h-.1a2 2 0 0 0-.29.19.63.63 0 0 0-.19.29.1.1 0 0 0 0 .05V1a.25.25 0 0 1 0 .07v.28a.84.84 0 0 0 0 .16v.11a.38.38 0 0 0 0 .11V2L53 5.14v.64a.58.58 0 0 0 0 .13V6a.55.55 0 0 0 0 .13 4.15 4.15 0 0 1-.38 1.31 1.53 1.53 0 0 1-1.09.85H50.4l-1.7-.41h-.23a1 1 0 0 0-.65.25 1 1 0 0 0-.31.37.29.29 0 0 0 0-.08.21.21 0 0 1 0-.1 1 1 0 0 1 .35-.73 2.15 2.15 0 0 1 .62-.59h1.24l.08-.08.08-.1a.52.52 0 0 0 0-.11v-.36a.65.65 0 0 1 0-.13v-.38a.41.41 0 0 1 0-.12V5.6a.43.43 0 0 1 0-.12q-.19-1.22-1-1.22h-.1l-.43.1-.22.06H47.9a1.24 1.24 0 0 1 .6-.83 1.92 1.92 0 0 1 1-.26A3.52 3.52 0 0 1 50.83.82h-.08l-.11.05-.16.13-.36.1H49.21L49 1h-.36a1.16 1.16 0 0 0-.45.22 1.38 1.38 0 0 0-.32.41 1.57 1.57 0 0 1 .35-.91A1.29 1.29 0 0 1 49 .17zM60 .15a.12.12 0 0 1 .11.1.41.41 0 0 1-.1.13h-.07a.91.91 0 0 0-1 .79l.11 2.53a3.36 3.36 0 0 1-.23 1.3 2.64 2.64 0 0 1-.7 1.06l-1 .92.59.02.76-.16H59.36a3.93 3.93 0 0 1 .5.1H60.31a.36.36 0 0 0 .14.06l.08.06.11.08.18.14H60.97l.08-.11.24.17-1.16 1.29a3.27 3.27 0 0 0-1.91-.82h-1.29a5.61 5.61 0 0 0-1 .24l-.52.18a3.1 3.1 0 0 0-.38.17l-.18-.1L56 7.21l.1-.18v-.08a.85.85 0 0 0 0-.12.53.53 0 0 0 0-.13.52.52 0 0 0 0-.08v-.14-.14a.17.17 0 0 1 0-.07 1.16 1.16 0 0 1 0-.14.51.51 0 0 1 0-.14v-.05l-.05-.07-.05-.12a1.43 1.43 0 0 0-.37-.24h-.45a.53.53 0 0 1 .25-.18 1 1 0 0 1 .34-.07h.45V5a.57.57 0 0 0-.22-.45 2.08 2.08 0 0 0-.54-.31H54.8a1 1 0 0 1 .46-.4 2 2 0 0 1 .61-.12h.28v-.24a.17.17 0 0 1 0-.07.49.49 0 0 1 0-.1v-.12A3 3 0 0 1 57 1l-.16.08-.15.05-.32.11h-.67a.29.29 0 0 1-.14 0h-.1a.35.35 0 0 0-.18-.06h-.73l-.13.13v.06a.42.42 0 0 1-.08.1l-.11.14a.1.1 0 0 1-.07 0 1.21 1.21 0 0 1 .38-.88 1.65 1.65 0 0 1 .89-.49h.36l1.27.35h.39a.69.69 0 0 0 .25-.07l.47-.19a.3.3 0 0 0 .13 0v.06l-.74.84a1.73 1.73 0 0 0 0 .18l-.06.26a3.07 3.07 0 0 1-.07.41v.64a6.64 6.64 0 0 0 0 .83v.85a1.22 1.22 0 0 0 0 .13v.88a7.09 7.09 0 0 1-.47 1.18 8.18 8.18 0 0 1-.65 1v.13A3.94 3.94 0 0 0 58 4.84v-.28a3.15 3.15 0 0 0 0-.53q0-.36-.05-.64t-.07-.47v-.33-.38a.59.59 0 0 1 0-.12 2.69 2.69 0 0 1 .41-1.3 1.77 1.77 0 0 1 .62-.49 2.35 2.35 0 0 1 .83-.18h.18a.16.16 0 0 0 .08.03zM65.44 1.62a6.84 6.84 0 0 0-.14.79V4a1.4 1.4 0 0 0 0 .18v.12a.57.57 0 0 0 0 .11.38.38 0 0 0 0 .1v.8a1.73 1.73 0 0 1-.2.66l-.1.14v.06l-.44.4-.65.56-.37.34-.22.18-.22.17-.2.19.1-.11.21-.13.22-.13.18-.1.14-.07h.16a6 6 0 0 0 .88-.49 2.44 2.44 0 0 0 .72-.76v-.1a1.46 1.46 0 0 1 0-.17l.05-.14v-.12a.46.46 0 0 1 0-.1 1.88 1.88 0 0 0 0-.21V2.24v-.2l.44-.46a1 1 0 0 1 0-.17l.07-.2.07-.2.06-.16.14-.36a2.79 2.79 0 0 1 .16-.35h.29l-.42.86-.09.29c0 .11-.07.25-.11.41a6.12 6.12 0 0 0-.17.6V3a14.94 14.94 0 0 0 2-1.72h.1l1.24 1.46-2 1.61a4.72 4.72 0 0 1 1.78 1.85l.18.32a1.07 1.07 0 0 0 .17.31l.28.37.32-.28.2.16-1.16 1.37H69A5.17 5.17 0 0 1 68 7l-1.35 1.45a6.26 6.26 0 0 0-.7-.22h-.36l-.28-.06h-1.62l-1.26.37h-.23a.15.15 0 0 1 0-.11L63.3 7a.53.53 0 0 0 .11-.2v-.11a1.63 1.63 0 0 0 0-.16.19.19 0 0 1 0-.06v-.11a.19.19 0 0 1 0-.06v-.2a.68.68 0 0 0-.1-.24.65.65 0 0 0-.17-.2h-.48l-.18.1h-.1q0-.7.84-.7H63.65l.35.04a1.45 1.45 0 0 0-.37-1 1.1 1.1 0 0 0-.89-.42h-.28l-.17.07h-.13a.52.52 0 0 0 0-.1.2.2 0 0 0 .07-.11.2.2 0 0 1 .07-.11 1.46 1.46 0 0 1 .41-.31 1.14 1.14 0 0 1 .54-.12h.37l.17.07h.08a3.44 3.44 0 0 1 .52-1.4 5.38 5.38 0 0 1 1-1.07l-.5.23-.31.14a2.75 2.75 0 0 1-.86.2h-1.1l-.14.07h-.09l-.1.1-.13.13-.06.08-.06.06h-.1v.18a1.46 1.46 0 0 1 0-.16 1.07 1.07 0 0 1 0-.17 2.06 2.06 0 0 1 .42-.86 1.42 1.42 0 0 1 .77-.44h.17a.29.29 0 0 0 .17 0h.1a.34.34 0 0 0 .15 0h.16a3.86 3.86 0 0 1 .53.12h.29a3.5 3.5 0 0 0 .93-.08h.32a6.59 6.59 0 0 0-.51 1.42zm.73 3.67H66A2.65 2.65 0 0 1 65.18 7h.4a.33.33 0 0 0 .14 0h.14a4.29 4.29 0 0 1 1.4.32l.18-.1.07-.06.1-.08a.29.29 0 0 1 0-.1.07.07 0 0 0 0-.05v-.09a.13.13 0 0 0 0-.07v-.08l-.22-.36a2 2 0 0 0-1.34-1zM66 3.4v1.51l1.93-1.46v-.17l-.79-.88z"/></g></g></svg>
