   <svg viewBox="0 0 138 138" fill="none" xmlns="http://www.w3.org/2000/svg">
            <path
              fillRule="evenodd"
              clipRule="evenodd"
              d="M138 69c0 38.108-30.892 69-69 69-38.108 0-69-30.892-69-69C0 30.892 30.892 0 69 0c38.108 0 69 30.892 69 69zm-69 62c34.242 0 62-27.758 62-62 0-34.242-27.758-62-62-62C34.758 7 7 34.758 7 69c0 34.242 27.758 62 62 62z"
              fill="#fff"
            />
            <path
              d="M49.483 61.571c3.86 0 6.991-3.13 6.991-6.99a6.991 6.991 0 1 0-6.991 6.99zM87.43 61.571a6.99 6.99 0 1 0 0-13.98 6.991 6.991 0 0 0 0 13.98zM68.456 98.94c-19.903 0-24-17.396-24-17.396h-9.952s6.145 26.678 33.952 26.678c27.514 0 33.952-26.678 33.952-26.678h-9.951s-4.098 17.395-24.001 17.395z"
              fill="#fff"
            />
          </svg>
